<svg width="48" height="48" viewBox="0 0 48 48" fill="none" xmlns="http://www.w3.org/2000/svg">
<g clip-path="url(#clip0_8_686)">
<rect width="48" height="48" fill="white"/>
<path d="M45 18L2 18" stroke="#152C5B" stroke-width="3" stroke-linecap="round"/>
<mask id="path-2-inside-1_8_686" fill="white">
<path d="M0 8C0 5.79086 1.79086 4 4 4H44C46.2091 4 48 5.79086 48 8V25C48 26.1046 47.1046 27 46 27H2C0.895431 27 0 26.1046 0 25V8Z"/>
</mask>
<path d="M0 8C0 5.79086 1.79086 4 4 4H44C46.2091 4 48 5.79086 48 8V25C48 26.1046 47.1046 27 46 27H2C0.895431 27 0 26.1046 0 25V8Z" stroke="#152C5B" stroke-width="6" mask="url(#path-2-inside-1_8_686)"/>
<path d="M42 29V29C37.2335 32.4665 36.6093 39.337 40.6729 43.6059L42 45" stroke="#152C5B" stroke-width="3" stroke-linecap="round"/>
<path d="M6 29V29C10.7665 32.4665 11.3907 39.337 7.32712 43.6059L6 45" stroke="#152C5B" stroke-width="3" stroke-linecap="round"/>
<path d="M35 29V29C30.2335 32.4665 29.6093 39.337 33.6729 43.6059L35 45" stroke="#152C5B" stroke-width="3" stroke-linecap="round"/>
<path d="M13 29V29C17.7665 32.4665 18.3907 39.337 14.3271 43.6059L13 45" stroke="#152C5B" stroke-width="3" stroke-linecap="round"/>
<path d="M20 12H27" stroke="#3564C6" stroke-width="3" stroke-linecap="round"/>
</g>
<defs>
<clipPath id="clip0_8_686">
<rect width="48" height="48" fill="white"/>
</clipPath>
</defs>
</svg>
