<svg width="48" height="48" viewBox="0 0 48 48" fill="none" xmlns="http://www.w3.org/2000/svg">
<path d="M5.5 29.5H42.5V39C42.5 40.933 40.933 42.5 39 42.5H9C7.067 42.5 5.5 40.933 5.5 39V29.5Z" stroke="#152C5B" stroke-width="3"/>
<path d="M10 43V46" stroke="#152C5B" stroke-width="3" stroke-linecap="round"/>
<path d="M38 43V46" stroke="#152C5B" stroke-width="3" stroke-linecap="round"/>
<path d="M40 21V7.19791C40 6.35318 39.4693 5.59953 38.6739 5.31488L35.7569 4.27088C35.2712 4.09705 34.7371 4.11762 34.2662 4.32828L31 5.78947" stroke="#3564C6" stroke-width="3" stroke-linecap="round"/>
<path d="M1.5 25C1.5 23.6193 2.61929 22.5 4 22.5H44C45.3807 22.5 46.5 23.6193 46.5 25V27C46.5 28.3807 45.3807 29.5 44 29.5H4C2.61929 29.5 1.5 28.3807 1.5 27V25Z" stroke="#152C5B" stroke-width="3"/>
</svg>
