<svg width="48" height="48" viewBox="0 0 48 48" fill="none" xmlns="http://www.w3.org/2000/svg">
<mask id="path-1-inside-1_8_641" fill="white">
<path d="M11.9331 26.0598C12.4854 26.0647 12.9291 26.5164 12.9242 27.0686L12.7994 41.1854C12.7804 43.3297 11.0268 45.0526 8.88251 45.0336C6.73826 45.0146 5.01537 43.261 5.03434 41.1167L5.15921 27C5.1641 26.4477 5.61576 26.004 6.16802 26.0088L11.9331 26.0598Z"/>
</mask>
<path d="M11.9331 26.0598C12.4854 26.0647 12.9291 26.5164 12.9242 27.0686L12.7994 41.1854C12.7804 43.3297 11.0268 45.0526 8.88251 45.0336C6.73826 45.0146 5.01537 43.261 5.03434 41.1167L5.15921 27C5.1641 26.4477 5.61576 26.004 6.16802 26.0088L11.9331 26.0598Z" stroke="#152C5B" stroke-width="6" mask="url(#path-1-inside-1_8_641)"/>
<mask id="path-2-inside-2_8_641" fill="white">
<path d="M41.9331 26.0598C42.4854 26.0647 42.9291 26.5164 42.9242 27.0686L42.7994 41.1854C42.7804 43.3297 41.0268 45.0526 38.8825 45.0336C36.7383 45.0146 35.0154 43.261 35.0343 41.1167L35.1592 27C35.1641 26.4477 35.6158 26.004 36.168 26.0088L41.9331 26.0598Z"/>
</mask>
<path d="M41.9331 26.0598C42.4854 26.0647 42.9291 26.5164 42.9242 27.0686L42.7994 41.1854C42.7804 43.3297 41.0268 45.0526 38.8825 45.0336C36.7383 45.0146 35.0154 43.261 35.0343 41.1167L35.1592 27C35.1641 26.4477 35.6158 26.004 36.168 26.0088L41.9331 26.0598Z" stroke="#152C5B" stroke-width="6" mask="url(#path-2-inside-2_8_641)"/>
<path d="M5.80089 17.1625C6.15527 16.1658 7.0986 15.5 8.15643 15.5H39.8436C40.9014 15.5 41.8447 16.1658 42.1991 17.1625L44.688 24.1625C45.2667 25.79 44.0598 27.5 42.3325 27.5H5.66754C3.9402 27.5 2.73333 25.79 3.312 24.1625L5.80089 17.1625Z" stroke="#152C5B" stroke-width="3"/>
<path d="M29.9735 10.9823V13.9823" stroke="#152C5B" stroke-width="3" stroke-linecap="round"/>
<path d="M17.9735 10.9823V13.9823" stroke="#152C5B" stroke-width="3" stroke-linecap="round"/>
<mask id="path-6-inside-3_8_641" fill="white">
<path d="M33.0882 2.06192C33.6404 2.0668 34.0842 2.51846 34.0793 3.07072L34.0351 8.07053C34.0155 10.2796 32.2089 12.0545 29.9998 12.035C27.7908 12.0154 26.0158 10.2088 26.0354 7.99977L26.0796 2.99996C26.0845 2.4477 26.5361 2.00396 27.0884 2.00885L33.0882 2.06192Z"/>
</mask>
<path d="M33.0882 2.06192C33.6404 2.0668 34.0842 2.51846 34.0793 3.07072L34.0351 8.07053C34.0155 10.2796 32.2089 12.0545 29.9998 12.035C27.7908 12.0154 26.0158 10.2088 26.0354 7.99977L26.0796 2.99996C26.0845 2.4477 26.5361 2.00396 27.0884 2.00885L33.0882 2.06192Z" stroke="#3564C6" stroke-width="6" mask="url(#path-6-inside-3_8_641)"/>
<mask id="path-7-inside-4_8_641" fill="white">
<path d="M21.0882 2.06192C21.6404 2.0668 22.0842 2.51846 22.0793 3.07072L22.0351 8.07053C22.0155 10.2796 20.2089 12.0545 17.9998 12.035C15.7908 12.0154 14.0158 10.2088 14.0354 7.99977L14.0796 2.99996C14.0845 2.4477 14.5361 2.00396 15.0884 2.00885L21.0882 2.06192Z"/>
</mask>
<path d="M21.0882 2.06192C21.6404 2.0668 22.0842 2.51846 22.0793 3.07072L22.0351 8.07053C22.0155 10.2796 20.2089 12.0545 17.9998 12.035C15.7908 12.0154 14.0158 10.2088 14.0354 7.99977L14.0796 2.99996C14.0845 2.4477 14.5361 2.00396 15.0884 2.00885L21.0882 2.06192Z" stroke="#3564C6" stroke-width="6" mask="url(#path-7-inside-4_8_641)"/>
</svg>
