<svg width="48" height="48" viewBox="0 0 48 48" fill="none" xmlns="http://www.w3.org/2000/svg">
<g clip-path="url(#clip0_8_739)">
<rect width="48" height="48" fill="white"/>
<path d="M22.6392 45.1308L22.1173 2.13299" stroke="#152C5B" stroke-width="3" stroke-linecap="round"/>
<mask id="path-2-inside-1_8_739" fill="white">
<path d="M35.9993 0.0296796C38.2084 0.013288 40.0209 1.79073 40.0477 3.99971L40.5333 43.9981C40.5601 46.2071 38.791 48.0111 36.582 48.0275L12.5826 48.2056C11.4781 48.2138 10.5718 47.3251 10.5584 46.2206L10.0243 2.22245C10.0109 1.11796 10.8954 0.215953 11.9999 0.207757L35.9993 0.0296796Z"/>
</mask>
<path d="M35.9993 0.0296796C38.2084 0.013288 40.0209 1.79073 40.0477 3.99971L40.5333 43.9981C40.5601 46.2071 38.791 48.0111 36.582 48.0275L12.5826 48.2056C11.4781 48.2138 10.5718 47.3251 10.5584 46.2206L10.0243 2.22245C10.0109 1.11796 10.8954 0.215953 11.9999 0.207757L35.9993 0.0296796Z" stroke="#152C5B" stroke-width="6" mask="url(#path-2-inside-1_8_739)"/>
<path d="M35 20L35 28" stroke="#3564C6" stroke-width="3" stroke-linecap="round"/>
</g>
<defs>
<clipPath id="clip0_8_739">
<rect width="48" height="48" fill="white"/>
</clipPath>
</defs>
</svg>
