<svg width="48" height="48" viewBox="0 0 48 48" fill="none" xmlns="http://www.w3.org/2000/svg">
<mask id="path-1-inside-1_3_96" fill="white">
<path fill-rule="evenodd" clip-rule="evenodd" d="M17.7645 9C16.9235 9 16.1723 9.52613 15.8849 10.3165L14.1818 15H8C3.58172 15 0 18.5817 0 23V37C0 41.4183 3.58172 45 8 45H40C44.4183 45 48 41.4183 48 37V23C48 18.5817 44.4183 15 40 15H33.8182L32.1151 10.3165C31.8277 9.52614 31.0765 9 30.2355 9H17.7645Z"/>
</mask>
<path d="M15.8849 10.3165L13.0655 9.29128L13.0655 9.29128L15.8849 10.3165ZM14.1818 15V18H16.2831L17.0012 16.0252L14.1818 15ZM33.8182 15L30.9988 16.0252L31.7169 18H33.8182V15ZM32.1151 10.3165L34.9345 9.29128L34.9345 9.29128L32.1151 10.3165ZM18.7043 11.3417C18.5606 11.7369 18.185 12 17.7645 12V6C15.662 6 13.7841 7.31534 13.0655 9.29128L18.7043 11.3417ZM17.0012 16.0252L18.7043 11.3417L13.0655 9.29128L11.3624 13.9748L17.0012 16.0252ZM8 18H14.1818V12H8V18ZM3 23C3 20.2386 5.23858 18 8 18V12C1.92487 12 -3 16.9249 -3 23H3ZM3 37V23H-3V37H3ZM8 42C5.23858 42 3 39.7614 3 37H-3C-3 43.0751 1.92487 48 8 48V42ZM40 42H8V48H40V42ZM45 37C45 39.7614 42.7614 42 40 42V48C46.0751 48 51 43.0751 51 37H45ZM45 23V37H51V23H45ZM40 18C42.7614 18 45 20.2386 45 23H51C51 16.9249 46.0751 12 40 12V18ZM33.8182 18H40V12H33.8182V18ZM29.2957 11.3417L30.9988 16.0252L36.6376 13.9748L34.9345 9.29128L29.2957 11.3417ZM30.2355 12C29.815 12 29.4394 11.7369 29.2957 11.3417L34.9345 9.29128C34.216 7.31534 32.338 6 30.2355 6V12ZM17.7645 12H30.2355V6H17.7645V12Z" fill="#152C5B" mask="url(#path-1-inside-1_3_96)"/>
<circle cx="24" cy="29" r="6.5" stroke="#3564C6" stroke-width="3"/>
<path d="M42 21H35" stroke="#152C5B" stroke-width="3" stroke-linecap="round"/>
</svg>
