<svg width="48" height="48" viewBox="0 0 48 48" fill="none" xmlns="http://www.w3.org/2000/svg">
<path d="M26.5 12.2553C26.5 15.4186 24.9827 24.1876 22.468 32.2175C21.2153 36.218 19.7479 39.9247 18.1595 42.6012C17.3642 43.9413 16.578 44.955 15.8281 45.6178C15.0786 46.2803 14.4743 46.5 14 46.5C13.5257 46.5 12.9214 46.2803 12.1719 45.6178C11.422 44.955 10.6358 43.9413 9.84051 42.6012C8.2521 39.9247 6.78472 36.218 5.53196 32.2175C3.01728 24.1876 1.5 15.4186 1.5 12.2553C1.5 6.49663 6.90268 1.5 14 1.5C21.0973 1.5 26.5 6.49663 26.5 12.2553Z" stroke="#152C5B" stroke-width="3"/>
<circle cx="14" cy="13" r="4.5" stroke="#3564C6" stroke-width="3"/>
</svg>
