<svg width="30" height="29" viewBox="0 0 30 29" fill="none" xmlns="http://www.w3.org/2000/svg">
<path d="M13.7989 1.67705C14.0983 0.755738 15.4017 0.75574 15.7011 1.67705L18.3984 9.97847C18.5322 10.3905 18.9162 10.6695 19.3494 10.6695H28.078C29.0468 10.6695 29.4495 11.9091 28.6658 12.4785L21.6042 17.609C21.2537 17.8637 21.1071 18.315 21.2409 18.7271L23.9382 27.0285C24.2376 27.9498 23.1831 28.7159 22.3994 28.1465L15.3378 23.016C14.9873 22.7613 14.5127 22.7613 14.1622 23.016L7.1006 28.1465C6.31689 28.7159 5.26241 27.9498 5.56176 27.0285L8.25906 18.7271C8.39293 18.315 8.24627 17.8637 7.89579 17.609L0.834171 12.4785C0.0504575 11.9091 0.453234 10.6695 1.42196 10.6695H10.1506C10.5838 10.6695 10.9678 10.3905 11.1016 9.97847L13.7989 1.67705Z" fill="#FFCC47"/>
</svg>
